<?xml version="1.0" encoding="UTF-8"?>
<svg width="31px" height="30px" viewBox="0 0 31 30" version="1.1" xmlns="http://www.w3.org/2000/svg" xmlns:xlink="http://www.w3.org/1999/xlink">
    <title>E4998D66-5BFF-4C81-B8B6-A15518394E02</title>
    <g id="Page-1" stroke="none" stroke-width="1" fill="none" fill-rule="evenodd">
        <g id="Progress-Dashboard-with-Score-Settings" transform="translate(-1632, -1370)" fill="#0592AF">
            <g id="Score-Buttons-with-Icons" transform="translate(1417, 1301)">
                <g id="Score-from-Manual-Score" transform="translate(190, 0)">
                    <g id="Use-Rubric-Score" transform="translate(15.5, 47)">
                        <g id="Manual-Score-Icon" transform="translate(10, 22)">
                            <path d="M15.297,9.33034859 L13.398,11.2293486 L6.8992757,11.2302512 L6.8992757,23.5755432 L19.2445677,23.5755432 L19.244,16.1263486 L21.143,14.2273486 L21.1438434,23.5755432 C21.1438434,24.6244842 20.2935087,25.4748189 19.2445677,25.4748189 L6.8992757,25.4748189 C5.85033469,25.4748189 5,24.6244842 5,23.5755432 L5,11.2302512 C5,10.1813102 5.85033469,9.33097551 6.8992757,9.33097551 L15.297,9.33034859 Z M19.8107362,7.50328237 L22.4967176,10.1892638 L12.5990745,20.0869069 C12.397901,20.2880805 12.1205621,20.3940418 11.8364977,20.3782605 L10.1849854,20.2865098 C9.93066784,20.272381 9.72761897,20.0693322 9.71349022,19.8150146 L9.62173953,18.1635023 C9.60595817,17.8794379 9.71191952,17.602099 9.9130931,17.4009255 L19.8107362,7.50328237 Z M23.4144782,5.31375391 L24.6862461,6.58552179 C25.0767704,6.97604608 25.0767704,7.60921106 24.6862461,7.99973535 L23.3788668,9.30711466 L20.6928853,6.62113321 L22.0002646,5.31375391 C22.3907889,4.92322961 23.0239539,4.92322961 23.4144782,5.31375391 Z" id="Combined-Shape"></path>
                        </g>
                    </g>
                </g>
            </g>
        </g>
    </g>
</svg>