<svg width="30" height="30" viewBox="0 0 30 30" xmlns="http://www.w3.org/2000/svg">
    <path d="M15 22.539a7.484 7.484 0 0 1-4.276-1.328l10.487-10.487A7.484 7.484 0 0 1 22.539 15a7.49 7.49 0 0 1-2.208 5.33A7.49 7.49 0 0 1 15 22.54M9.67 9.669A7.49 7.49 0 0 1 15 7.461c1.55 0 3.028.465 4.276 1.328L8.789 19.276A7.484 7.484 0 0 1 7.461 15 7.49 7.49 0 0 1 9.67 9.67m12.402-1.741c-3.905-3.905-10.237-3.905-14.142 0-3.905 3.905-3.905 10.237 0 14.142 3.905 3.905 10.237 3.905 14.142 0 3.905-3.905 3.905-10.237 0-14.142" fill="#0592AF" fill-rule="nonzero"/>
</svg>
