<svg width="36" height="34" viewBox="0 0 36 34" xmlns="http://www.w3.org/2000/svg">
  <g fill="none">
    <path d="M0 33.966h36V0H0z"/>
    <path d="M23.067 22.577 18 17.516v-7.193h2.667v6.127l4.266 4.263-1.866 1.864zm-3.8 6.394c-1.511 0-2.984-.282-4.418-.849-1.433-.566-2.738-1.438-3.916-2.614l1.867-1.865a9.636 9.636 0 0 0 3.067 1.982 9.246 9.246 0 0 0 3.466.682c2.578 0 4.778-.91 6.6-2.73 1.823-1.821 2.734-4.02 2.734-6.594 0-2.575-.911-4.773-2.734-6.593-1.822-1.821-4.022-2.731-6.6-2.731-2.556 0-4.75.894-6.584 2.68-1.833 1.788-2.749 4.09-2.749 6.91l2.467-2.464 1.866 1.865-5.666 5.661L3 16.65l1.933-1.865 2.4 2.464c0-1.731.311-3.347.934-4.845.622-1.499 1.477-2.798 2.566-3.897a11.898 11.898 0 0 1 3.818-2.58c1.454-.622 3.016-.932 4.682-.932 1.644 0 3.195.316 4.651.948A12.265 12.265 0 0 1 27.8 8.525a12.251 12.251 0 0 1 2.584 3.812c.633 1.454.95 3.004.95 4.646s-.317 3.191-.95 4.646a12.251 12.251 0 0 1-2.584 3.812 12.204 12.204 0 0 1-3.833 2.582c-1.467.632-3.034.948-4.7.948z" fill="#FF8415" fill-rule="evenodd"/>
  </g>
</svg>
