<svg xmlns="http://www.w3.org/2000/svg" width="16" height="16" viewBox="0 0 16 16">
  <path fill="#FF8415" d="M13.6 0C14.925 0 16 1.075 16 2.4v11.2c0 1.325-1.075 2.4-2.4 2.4H2.4C1.075 16 0 14.925 0 13.6V2.4C0 1.075 1.075 0 2.4 0h11.2z" transform="translate(-591 -266) translate(243 258) translate(6.5) translate(342 8)"/>
  <path fill="#FFF" d="M13.6 1.2H2.4c-.624 0-1.136.476-1.195 1.084L1.2 2.4v11.2c0 .624.476 1.136 1.084 1.195l.116.005h11.2c.624 0 1.136-.476 1.195-1.084l.005-.116V2.4c0-.624-.476-1.136-1.084-1.195L13.6 1.2z" transform="translate(-591 -266) translate(243 258) translate(6.5) translate(342 8)"/>
</svg>
