<svg xmlns="http://www.w3.org/2000/svg" width="17" height="16" viewBox="0 0 17 16">
    <g fill="none" fill-rule="evenodd">
        <g fill-rule="nonzero">
            <g>
                <g>
                    <g>
                        <path fill="#FF8415" d="M13.6 0C14.925 0 16 1.075 16 2.4v11.2c0 1.325-1.075 2.4-2.4 2.4H8c-4.418 0-8-3.582-8-8s3.582-8 8-8h5.6z" transform="translate(-489 -266) translate(243 258) translate(6.5) translate(240 8)"/>
                        <path fill="#FFCEA1" d="M13.6 1.2H8C4.244 1.2 1.2 4.244 1.2 8c0 3.687 2.935 6.69 6.596 6.797L8 14.8h5.6c.624 0 1.136-.476 1.195-1.084l.005-.116V2.4c0-.624-.476-1.136-1.084-1.195L13.6 1.2z" transform="translate(-489 -266) translate(243 258) translate(6.5) translate(240 8)"/>
                    </g>
                </g>
            </g>
        </g>
    </g>
</svg>
