<svg xmlns="http://www.w3.org/2000/svg" width="30" height="30" viewBox="0 0 30 30">
    <g>
        <path d="M17 0c1.657 0 3 1.343 3 3v14c0 1.657-1.343 3-3 3H3c-1.657 0-3-1.343-3-3V3c0-1.657 1.343-3 3-3h14z" transform="translate(5 5)"/>
        <path fill="#FFF" d="M17 2H3c-.513 0-.936.386-.993.883L2 3v14c0 .513.386.936.883.993L3 18h14c.513 0 .936-.386.993-.883L18 17V3c0-.513-.386-.936-.883-.993L17 2z" transform="translate(5 5)"/>
        <path d="M6.5 11.5L9 14.51 12.5 10 17 16 3 16z" transform="translate(5 5)"/>
    </g>
</svg>
