<svg xmlns="http://www.w3.org/2000/svg" width="30" height="30" viewBox="0 0 30 30">
    <g>
        <path d="M15 0c2.761 0 5 2.239 5 5v10c0 2.761-2.239 5-5 5H5c-2.761 0-5-2.239-5-5V5c0-2.761 2.239-5 5-5h10z" transform="translate(5 5)"/>
        <path fill="#FFF" d="M15 2H5C3.402 2 2.096 3.249 2.005 4.824L2 5v10c0 1.598 1.249 2.904 2.824 2.995L5 18h10c1.598 0 2.904-1.249 2.995-2.824L18 15V5c0-1.598-1.249-2.904-2.824-2.995L15 2z" transform="translate(5 5)"/>
        <path d="M9 17H7v-1H3v-1h4v-2.5H3v-1h4V9H3V7h4V3h2v4h2.5V3h1v4H15V3h1v4h1v2h-1v2.5h1v1h-1V15h1v1h-1v1h-1v-1h-2.5v1h-1v-1H9v1zm0-2h2.5v-2.5H9V15zm6-2.5h-2.5V15H15v-2.5zm-6-1h2.5V9H9v2.5zM15 9h-2.5v2.5H15V9z" transform="translate(5 5)"/>
    </g>
</svg>
