<svg xmlns="http://www.w3.org/2000/svg" width="24" height="24" viewBox="0 0 24 24">
    <g fill="none">
        <path fill="#FFF" d="M17 0H7C3.134 0 0 3.134 0 7v10c0 3.866 3.134 7 7 7h10c3.866 0 7-3.134 7-7V7c0-3.866-3.134-7-7-7z"/>
        <path fill="#FF8415" d="M17 2c2.761 0 5 2.239 5 5v10c0 2.761-2.239 5-5 5H7c-2.761 0-5-2.239-5-5V7c0-2.761 2.239-5 5-5h10z"/>
        <path fill="#FFF" d="M16.25 14c1.243 0 2.25 1.007 2.25 2.25s-1.007 2.25-2.25 2.25S14 17.493 14 16.25 15.007 14 16.25 14zm-8.5-3C8.993 11 10 12.007 10 13.25S8.993 15.5 7.75 15.5 5.5 14.493 5.5 13.25 6.507 11 7.75 11zm4.5-5.5c1.243 0 2.25 1.007 2.25 2.25S13.493 10 12.25 10 10 8.993 10 7.75s1.007-2.25 2.25-2.25z"/>
    </g>
</svg>
