<svg xmlns="http://www.w3.org/2000/svg" width="30" height="30" viewBox="0 0 30 30">
    <g fill="none">
        <path fill="#0592AF" d="M15 0c2.761 0 5 2.239 5 5v10c0 2.761-2.239 5-5 5H5c-2.761 0-5-2.239-5-5V5c0-2.761 2.239-5 5-5h10z" transform="translate(5 5)"/>
        <path fill="#FFF" d="M15 2H5C3.402 2 2.096 3.249 2.005 4.824L2 5v10c0 1.598 1.249 2.904 2.824 2.995L5 18h10c1.598 0 2.904-1.249 2.995-2.824L18 15V5c0-1.598-1.249-2.904-2.824-2.995L15 2z" transform="translate(5 5)"/>
        <path fill="#0592AF" d="M14.25 12c1.243 0 2.25 1.007 2.25 2.25s-1.007 2.25-2.25 2.25S12 15.493 12 14.25 13.007 12 14.25 12zm-8.5-3C6.993 9 8 10.007 8 11.25S6.993 13.5 5.75 13.5 3.5 12.493 3.5 11.25 4.507 9 5.75 9zm4.5-5.5c1.243 0 2.25 1.007 2.25 2.25S11.493 8 10.25 8 8 6.993 8 5.75 9.007 3.5 10.25 3.5z" transform="translate(5 5)"/>
    </g>
</svg>
