<svg xmlns="http://www.w3.org/2000/svg" width="24" height="24" viewBox="0 0 24 24">
    <g fill="none">
        <path fill="#FFF" d="M17 0H7C3.134 0 0 3.134 0 7v10c0 3.866 3.134 7 7 7h10c3.866 0 7-3.134 7-7V7c0-3.866-3.134-7-7-7z"/>
        <path fill="#FF8415" d="M17 2c2.761 0 5 2.239 5 5v10c0 2.761-2.239 5-5 5H7c-2.761 0-5-2.239-5-5V7c0-2.761 2.239-5 5-5h10z"/>
        <circle cx="15.5" cy="15.5" r="2.75" fill="#FFF"/>
        <path fill="#FFF" d="M6 13L11 13 11 18 6 18z"/>
        <path fill="#FFF" d="M12 6L8.5 11.75 15.5 11.75z" transform="rotate(180 12 8.875)"/>
    </g>
</svg>
