<svg xmlns="http://www.w3.org/2000/svg" width="30" height="30" viewBox="0 0 30 30">
    <g fill="none" fill-rule="evenodd">
        <path fill="#0592AF" fill-rule="nonzero" d="M15 0c2.761 0 5 2.239 5 5v10c0 2.761-2.239 5-5 5H5c-2.761 0-5-2.239-5-5V5c0-2.761 2.239-5 5-5h10z" transform="translate(5 5)"/>
        <path fill="#FFF" fill-rule="nonzero" d="M15 2H5C3.402 2 2.096 3.249 2.005 4.824L2 5v10c0 1.598 1.249 2.904 2.824 2.995L5 18h10c1.598 0 2.904-1.249 2.995-2.824L18 15V5c0-1.598-1.249-2.904-2.824-2.995L15 2z" transform="translate(5 5)"/>
        <path fill="#0592AF" d="M15 13v2H9v-2h6zm-8 0v2H5v-2h2zm0-4v2H5V9h2zm8 0v2H9V9h6zm0-4v2H9V5h6zM7 5v2H5V5h2z" transform="translate(5 5)"/>
    </g>
</svg>
