<svg xmlns="http://www.w3.org/2000/svg" width="24" height="24" viewBox="0 0 24 24">
    <g fill="none" fill-rule="evenodd">
        <path fill="#FFF" fill-rule="nonzero" d="M17 0H7C3.134 0 0 3.134 0 7v10c0 3.866 3.134 7 7 7h10c3.866 0 7-3.134 7-7V7c0-3.866-3.134-7-7-7z"/>
        <path fill="#FF8415" fill-rule="nonzero" d="M17 2c2.761 0 5 2.239 5 5v10c0 2.761-2.239 5-5 5H7c-2.761 0-5-2.239-5-5V7c0-2.761 2.239-5 5-5h10z"/>
        <path fill="#FFF" d="M17 15v2h-6v-2h6zm-8 0v2H7v-2h2zm0-4v2H7v-2h2zm8 0v2h-6v-2h6zm0-4v2h-6V7h6zM9 7v2H7V7h2z"/>
    </g>
</svg>
