<svg xmlns="http://www.w3.org/2000/svg" width="24" height="24" viewBox="0 0 24 24">
    <g fill="none">
        <path fill="#FFF" d="M17 0H7C3.134 0 0 3.134 0 7v10c0 3.866 3.134 7 7 7h10c3.866 0 7-3.134 7-7V7c0-3.866-3.134-7-7-7z"/>
        <path fill="red" d="M17 2c2.761 0 5 2.239 5 5v10c0 2.761-2.239 5-5 5H7c-2.761 0-5-2.239-5-5V7c0-2.761 2.239-5 5-5h10z"/>
        <path fill="#FFF" d="M18.414 8.41L15.59 5.586 12 9.175 8.41 5.586 5.586 8.41 9.175 12 5.586 15.59 8.41 18.414 12 14.825 15.59 18.414 18.414 15.59 14.825 12z"/>
    </g>
</svg>
