<?xml version="1.0" encoding="UTF-8"?>
<svg width="31px" height="30px" viewBox="0 0 31 30" version="1.1" xmlns="http://www.w3.org/2000/svg" xmlns:xlink="http://www.w3.org/1999/xlink">
    <title>EDBE9B57-236B-45A4-9A81-A3293C802B77</title>
    <g id="Page-1" stroke="none" stroke-width="1" fill="none" fill-rule="evenodd">
        <g id="Progress-Dashboard-with-Score-Settings" transform="translate(-1436, -1370)" fill="#0592AF">
            <g id="Score-Buttons-with-Icons" transform="translate(1417, 1301)">
                <g id="Use-Rubric-Score" transform="translate(9.5, 47)">
                    <g id="Rubric-Score-Icon" transform="translate(10, 22)">
                        <g id="rubric-icon" transform="translate(5, 5)">
                            <path d="M20,0 L20,20 L0,20 L0,0 L20,0 Z M9.25,13.75 L2,13.75 L2,18 L9.25,18 L9.25,13.75 Z M18,13.75 L10.75,13.75 L10.75,18 L18,18 L18,13.75 Z M14.5,14.5 C15.1903559,14.5 15.75,15.0596441 15.75,15.75 C15.75,16.4403559 15.1903559,17 14.5,17 C13.8096441,17 13.25,16.4403559 13.25,15.75 C13.25,15.0596441 13.8096441,14.5 14.5,14.5 Z M9.25,8 L2,8 L2,12.25 L9.25,12.25 L9.25,8 Z M18,8 L10.75,8 L10.75,12.25 L18,12.25 L18,8 Z M5.5,8.75 C6.19035594,8.75 6.75,9.30964406 6.75,10 C6.75,10.6903559 6.19035594,11.25 5.5,11.25 C4.80964406,11.25 4.25,10.6903559 4.25,10 C4.25,9.30964406 4.80964406,8.75 5.5,8.75 Z M9.25,2 L2,2 L2,6.5 L9.25,6.5 L9.25,2 Z M18,2 L10.75,2 L10.75,6.5 L18,6.5 L18,2 Z M5.5,3 C6.19035594,3 6.75,3.55964406 6.75,4.25 C6.75,4.94035594 6.19035594,5.5 5.5,5.5 C4.80964406,5.5 4.25,4.94035594 4.25,4.25 C4.25,3.55964406 4.80964406,3 5.5,3 Z" id="Combined-Shape"></path>
                        </g>
                    </g>
                </g>
            </g>
        </g>
    </g>
</svg>