<svg width="24" height="24" viewBox="0 0 24 24" xmlns="http://www.w3.org/2000/svg">
    <g fill="none" fill-rule="evenodd">
        <path d="M0 0h24v24H0z"/>
        <path d="M10.5 2a8.5 8.5 0 0 1 8.366 10.012 6.5 6.5 0 0 0-6.856 6.854A8.5 8.5 0 1 1 10.5 2zm3.853 3.952L8.73 11.575 6.647 9.493 4.55 11.59l4.18 4.18 7.72-7.72-2.097-2.098z" fill="#4EA15A" fill-rule="nonzero"/>
        <path d="M22.024 18.964a3.492 3.492 0 0 0-.005-.928l1.002-.78a.242.242 0 0 0 .06-.3l-.948-1.64c-.06-.108-.183-.143-.291-.108l-1.18.474a3.487 3.487 0 0 0-.8-.464l-.177-1.254a.239.239 0 0 0-.237-.202h-1.896a.234.234 0 0 0-.232.202l-.177 1.254a3.564 3.564 0 0 0-.8.464l-1.18-.474a.236.236 0 0 0-.29.108l-.944 1.64c-.059.103-.04.231.06.3l1.002.78a2.897 2.897 0 0 0-.045.464c0 .153.01.316.035.464l-1.002.78a.242.242 0 0 0-.06.3l.948 1.64c.06.108.183.143.291.108l1.18-.474c.247.188.508.346.8.464l.177 1.254a.243.243 0 0 0 .237.202h1.896a.23.23 0 0 0 .232-.202l.177-1.254c.292-.118.558-.276.8-.464l1.18.474c.108.04.232 0 .29-.108l.949-1.64c.059-.108.034-.231-.06-.3l-.992-.78zM18.5 20.277c-.977 0-1.777-.8-1.777-1.777 0-.977.8-1.777 1.777-1.777.977 0 1.777.8 1.777 1.777 0 .977-.8 1.777-1.777 1.777z" fill="#4EA15A" fill-rule="nonzero"/>
    </g>
</svg>
