<svg xmlns="http://www.w3.org/2000/svg" width="24" height="24" viewBox="0 0 24 24">
    <g fill="none" fill-rule="evenodd">
        <g>
            <g>
                <g>
                    <g>
                        <g>
                            <path d="M0 0H24V24H0z" transform="translate(-658 -124) translate(635 60) translate(0 50) translate(20 11) translate(3 3)"/>
                            <path fill="#4EA15A" fill-rule="nonzero" d="M19 3H4.99C3.89 3 3 3.9 3 5l.01 14c0 1.1.89 2 1.99 2h10l6-6V5c0-1.1-.9-2-2-2zM7 8h10v2H7V8zm5 6H7v-2h5v2zm2 5.5V14h5.5L14 19.5z" transform="translate(-658 -124) translate(635 60) translate(0 50) translate(20 11) translate(3 3)"/>
                        </g>
                    </g>
                </g>
            </g>
        </g>
    </g>
</svg>
